<svg width="20" height="20" viewBox="0 0 20 20" fill="none" xmlns="http://www.w3.org/2000/svg">
<path d="M1.66669 5.83329L5.34169 2.15829C5.49673 2.00232 5.68112 1.87857 5.88421 1.79419C6.08731 1.70981 6.30509 1.66645 6.52502 1.66663H13.475C13.6949 1.66645 13.9127 1.70981 14.1158 1.79419C14.3189 1.87857 14.5033 2.00232 14.6584 2.15829L18.3334 5.83329" stroke="currentColor" stroke-width="1.66667" stroke-linecap="round" stroke-linejoin="round"/>
<path d="M3.33331 10V16.6667C3.33331 17.1087 3.50891 17.5326 3.82147 17.8452C4.13403 18.1577 4.55795 18.3333 4.99998 18.3333H15C15.442 18.3333 15.8659 18.1577 16.1785 17.8452C16.4911 17.5326 16.6666 17.1087 16.6666 16.6667V10" stroke="currentColor" stroke-width="1.66667" stroke-linecap="round" stroke-linejoin="round"/>
<path d="M12.5 18.3334V15C12.5 14.558 12.3244 14.1341 12.0118 13.8215C11.6993 13.509 11.2754 13.3334 10.8333 13.3334H9.16667C8.72464 13.3334 8.30072 13.509 7.98816 13.8215C7.6756 14.1341 7.5 14.558 7.5 15V18.3334" stroke="currentColor" stroke-width="1.66667" stroke-linecap="round" stroke-linejoin="round"/>
<path d="M1.66669 5.83337H18.3334" stroke="currentColor" stroke-width="1.66667" stroke-linecap="round" stroke-linejoin="round"/>
<path d="M18.3334 5.83337V8.33337C18.3334 8.7754 18.1578 9.19932 17.8452 9.51188C17.5326 9.82445 17.1087 10 16.6667 10C16.1798 9.97324 15.7148 9.789 15.3417 9.47504C15.2423 9.40319 15.1227 9.36451 15 9.36451C14.8773 9.36451 14.7578 9.40319 14.6584 9.47504C14.2852 9.789 13.8202 9.97324 13.3334 10C12.8465 9.97324 12.3815 9.789 12.0084 9.47504C11.9089 9.40319 11.7894 9.36451 11.6667 9.36451C11.544 9.36451 11.4245 9.40319 11.325 9.47504C10.9519 9.789 10.4869 9.97324 10 10C9.51313 9.97324 9.04813 9.789 8.67502 9.47504C8.57559 9.40319 8.45603 9.36451 8.33335 9.36451C8.21068 9.36451 8.09112 9.40319 7.99169 9.47504C7.61858 9.789 7.15357 9.97324 6.66669 10C6.1798 9.97324 5.7148 9.789 5.34169 9.47504C5.24225 9.40319 5.1227 9.36451 5.00002 9.36451C4.87734 9.36451 4.75779 9.40319 4.65835 9.47504C4.28525 9.789 3.82024 9.97324 3.33335 10C2.89133 10 2.4674 9.82445 2.15484 9.51188C1.84228 9.19932 1.66669 8.7754 1.66669 8.33337V5.83337" stroke="currentColor" stroke-width="1.66667" stroke-linecap="round" stroke-linejoin="round"/>
</svg>
